<svg width="212" height="201" viewBox="0 0 212 201" fill="none" xmlns="http://www.w3.org/2000/svg">
<g filter="url(#filter0_d_7226_25038)">
<rect x="211.848" y="5.46771e-06" width="200.246" height="211.848" rx="7.5" transform="rotate(90 211.848 5.46771e-06)" fill="#FF385C" shape-rendering="crispEdges"/>
<path d="M85.1166 33.4243L79.9421 24.0516L85.7024 24.0516L92.2438 34.9376L92.2438 39.8681L58.0723 39.8681L58.0723 33.4243L85.1166 33.4243ZM76.2809 51.3142L77.0131 49.9473C78.0545 50.7935 78.8193 51.7535 79.3075 52.8275C79.8282 53.934 80.0886 55.252 80.0886 56.7816C80.0886 58.7343 79.6818 60.4917 78.8681 62.0538C78.0545 63.6159 76.8829 64.8363 75.3534 65.715C73.8238 66.5937 72.0664 67.0331 70.0812 67.0331L67.8356 67.0331C65.883 67.0331 64.1256 66.5449 62.5635 65.5686C61.0013 64.6248 59.7809 63.3067 58.9022 61.6144C58.0235 59.9221 57.5842 57.9857 57.5842 55.8053C57.5842 53.5272 58.0235 51.5094 58.9022 49.752C59.7809 47.9946 61.0013 46.6278 62.5635 45.6515C64.1256 44.6751 65.883 44.187 67.8356 44.187L69.9347 44.187C71.562 44.187 73.1729 44.4148 74.7676 44.8704C76.3622 45.326 77.8918 45.9281 79.3563 46.6766L92.2438 53.7062L92.2927 60.394L76.2809 51.3142ZM75.1093 55.8053C75.1093 54.1455 74.6699 52.8275 73.7912 51.8511C72.9125 50.9074 71.6921 50.4355 70.13 50.4355L67.738 50.4355C66.241 50.4355 65.0368 50.9236 64.1256 51.9C63.2143 52.8763 62.7587 54.1781 62.7587 55.8053C62.7587 57.3023 63.2143 58.5065 64.1256 59.4177C65.0694 60.3615 66.2735 60.8334 67.738 60.8334L70.13 60.8334C71.6596 60.8334 72.8637 60.3777 73.7424 59.4665C74.6537 58.5553 75.1093 57.3349 75.1093 55.8053ZM76.1631 80.3261L76.1631 83.0139L58.0723 71.3841L58.0723 68.6963L76.1631 80.3261ZM57.8139 79.68C57.8139 78.7152 58.0982 77.9399 58.6668 77.3541C59.2353 76.7683 59.9848 76.4754 60.9152 76.4754L62.6984 76.4754C63.6288 76.4754 64.3697 76.7683 64.921 77.3541C65.4723 77.9399 65.748 78.7152 65.748 79.68C65.748 80.6104 65.4637 81.3599 64.8952 81.9285C64.3438 82.497 63.6116 82.7813 62.6984 82.7813L60.9152 82.7813C59.9848 82.7813 59.2353 82.497 58.6668 81.9285C58.0982 81.3599 57.8139 80.6104 57.8139 79.68ZM59.7005 79.6542C59.7005 79.9643 59.8125 80.2228 60.0365 80.4295C60.2605 80.6363 60.5534 80.7396 60.9152 80.7396L62.6726 80.7396C63.0344 80.7396 63.3273 80.6363 63.5513 80.4295C63.7753 80.2228 63.8872 79.9643 63.8872 79.6542C63.8872 79.3096 63.7753 79.0339 63.5513 78.8272C63.3445 78.6377 63.0516 78.5429 62.6726 78.5429L60.9152 78.5429C60.5361 78.5429 60.2346 78.6377 60.0106 78.8272C59.8039 79.0339 59.7005 79.3096 59.7005 79.6542ZM68.4875 72.1336C68.4875 71.186 68.7631 70.4193 69.3145 69.8335C69.8658 69.2477 70.6067 68.9548 71.5371 68.9548L73.3203 68.9548C74.2507 68.9548 74.9915 69.2391 75.5429 69.8076C76.1115 70.3934 76.3957 71.1688 76.3957 72.1336C76.3957 73.0812 76.1115 73.8393 75.5429 74.4079C74.9915 74.9764 74.2507 75.2607 73.3203 75.2607L71.5371 75.2607C70.6067 75.2607 69.8658 74.9764 69.3145 74.4079C68.7631 73.8393 68.4875 73.0812 68.4875 72.1336ZM70.3482 72.1077C70.3482 72.4351 70.4516 72.6935 70.6584 72.8831C70.8824 73.0898 71.1839 73.1932 71.5629 73.1932L73.3461 73.1932C73.6907 73.1932 73.9664 73.0898 74.1732 72.8831C74.3971 72.6935 74.5091 72.4351 74.5091 72.1077C74.5091 71.7804 74.3971 71.5133 74.1732 71.3066C73.9664 71.1171 73.6907 71.0223 73.3461 71.0223L71.5629 71.0223C71.1839 71.0223 70.8824 71.1171 70.6584 71.3066C70.4516 71.5133 70.3482 71.7804 70.3482 72.1077Z" fill="white"/>
<rect opacity="0.6" x="34.6661" y="22.1477" width="106.887" height="12.5183" rx="6.25915" transform="rotate(90 34.6661 22.1477)" fill="white"/>
<path d="M158.589 181.067C159.109 180.851 159.673 180.634 160.15 180.417C160.931 180.07 161.668 179.723 162.362 179.419L162.406 179.376C168.912 176.383 175.505 173.173 182.012 169.79L182.272 169.66C182.923 169.313 183.617 168.966 184.311 168.619C185.091 168.185 185.916 167.751 186.696 167.057C188.431 165.669 189.386 163.674 189.386 161.548C189.386 159.379 188.431 157.428 186.783 155.996C186.002 155.346 185.178 154.868 184.397 154.435C183.703 154.088 183.009 153.741 182.359 153.394L182.098 153.263C175.592 149.924 168.999 146.67 162.492 143.677L162.406 143.634C161.712 143.33 160.974 142.983 160.194 142.636C159.716 142.419 159.196 142.203 158.632 141.986C157.027 141.422 155.509 141.248 153.947 141.465C150.694 141.942 147.962 144.111 146.747 147.104C146.27 148.232 146.053 149.403 146.053 150.618C146.053 150.965 146.096 151.398 146.14 151.745C146.313 153.177 146.79 154.652 147.615 156.083C148.612 157.861 150.044 159.553 152.126 161.462C150.044 163.37 148.612 165.105 147.615 166.84C146.79 168.272 146.313 169.746 146.14 171.178C146.096 171.525 146.053 171.959 146.053 172.306C146.053 173.52 146.27 174.735 146.747 175.819C147.962 178.855 150.738 180.981 153.947 181.458C155.466 181.805 156.984 181.631 158.589 181.067ZM156.333 161.505C159.283 159.163 162.059 157.644 164.401 157.124C165.399 156.907 166.266 156.864 167.047 156.994C167.741 157.081 168.348 157.341 168.869 157.688C170.04 158.512 170.777 159.9 170.777 161.505C170.777 163.11 170.083 164.541 168.869 165.322C168.348 165.669 167.741 165.929 167.047 166.016C166.266 166.146 165.355 166.103 164.401 165.886C162.102 165.365 159.326 163.847 156.333 161.505ZM154.294 178.812C152.039 178.508 150.087 176.99 149.219 174.865C148.786 173.824 148.656 172.696 148.786 171.568C148.916 170.484 149.263 169.399 149.913 168.272C150.781 166.71 152.126 165.148 154.121 163.327C157.634 166.19 160.844 167.925 163.707 168.575C165.052 168.879 166.266 168.922 167.394 168.792C168.478 168.619 169.476 168.228 170.344 167.621C172.295 166.276 173.423 164.021 173.423 161.505C173.423 158.989 172.252 156.734 170.344 155.389C169.476 154.782 168.478 154.391 167.394 154.218C166.266 154.044 165.008 154.088 163.707 154.435C160.844 155.085 157.591 156.864 154.078 159.683C152.082 157.905 150.738 156.3 149.87 154.738C149.219 153.61 148.872 152.526 148.742 151.442C148.612 150.271 148.786 149.143 149.176 148.145C150.044 146.02 151.995 144.502 154.251 144.198C155.335 144.068 156.42 144.155 157.634 144.588C158.068 144.718 158.502 144.935 159.022 145.152C159.716 145.456 160.454 145.803 161.191 146.15L161.278 146.193C167.741 149.186 174.334 152.396 180.754 155.736L181.014 155.866C181.665 156.213 182.359 156.56 183.009 156.907C183.703 157.254 184.354 157.644 184.918 158.122C185.959 159.032 186.523 160.247 186.523 161.592C186.523 162.936 185.959 164.151 184.918 165.062C184.354 165.539 183.703 165.929 183.009 166.276C182.359 166.623 181.665 166.97 181.014 167.317L180.754 167.447C174.291 170.744 167.698 173.954 161.235 176.947L161.191 176.947C160.497 177.294 159.716 177.597 159.022 177.944C158.502 178.161 158.068 178.378 157.634 178.508C156.507 178.855 155.422 178.985 154.294 178.812Z" fill="white"/>
</g>
<defs>
<filter id="filter0_d_7226_25038" x="-9.00004" y="-8.99999" width="229.848" height="218.246" filterUnits="userSpaceOnUse" color-interpolation-filters="sRGB">
<feFlood flood-opacity="0" result="BackgroundImageFix"/>
<feColorMatrix in="SourceAlpha" type="matrix" values="0 0 0 0 0 0 0 0 0 0 0 0 0 0 0 0 0 0 127 0" result="hardAlpha"/>
<feOffset/>
<feGaussianBlur stdDeviation="4.5"/>
<feComposite in2="hardAlpha" operator="out"/>
<feColorMatrix type="matrix" values="0 0 0 0 0 0 0 0 0 0 0 0 0 0 0 0 0 0 0.12 0"/>
<feBlend mode="normal" in2="BackgroundImageFix" result="effect1_dropShadow_7226_25038"/>
<feBlend mode="normal" in="SourceGraphic" in2="effect1_dropShadow_7226_25038" result="shape"/>
</filter>
</defs>
</svg>
