<svg width="226" height="106" viewBox="0 0 226 106" fill="none" xmlns="http://www.w3.org/2000/svg">
<g filter="url(#filter0_d_7226_25187)">
<rect width="225.35" height="105.924" rx="7.5" fill="#F0AF32" shape-rendering="crispEdges"/>
<path d="M33.204 51.6965H23.5792V48.2547H37.6204V51.6051L30.3714 69.5754H25.955L33.204 51.6965ZM46.066 58.288H47.743L40.4868 69.5754H38.8098L46.066 58.288ZM45.6629 69.7367C45.0609 69.7367 44.5771 69.5593 44.2116 69.2045C43.8461 68.8498 43.6634 68.3822 43.6634 67.8017V66.6891C43.6634 66.1086 43.8461 65.6463 44.2116 65.3023C44.5771 64.9583 45.0609 64.7863 45.6629 64.7863C46.2434 64.7863 46.711 64.9637 47.0657 65.3184C47.4205 65.6624 47.5978 66.1193 47.5978 66.6891V67.8017C47.5978 68.3822 47.4205 68.8498 47.0657 69.2045C46.711 69.5593 46.2434 69.7367 45.6629 69.7367ZM45.6467 68.5595C45.8402 68.5595 46.0015 68.4897 46.1305 68.3499C46.2595 68.2102 46.324 68.0274 46.324 67.8017V66.7052C46.324 66.4794 46.2595 66.2967 46.1305 66.1569C46.0015 66.0172 45.8402 65.9473 45.6467 65.9473C45.4317 65.9473 45.2597 66.0172 45.1307 66.1569C45.0125 66.2859 44.9534 66.4687 44.9534 66.7052V67.8017C44.9534 68.0382 45.0125 68.2263 45.1307 68.366C45.2597 68.495 45.4317 68.5595 45.6467 68.5595ZM40.9544 63.0771C40.3631 63.0771 39.8848 62.9051 39.5193 62.5611C39.1538 62.2171 38.971 61.7548 38.971 61.1743V60.0617C38.971 59.4812 39.1484 59.019 39.5031 58.675C39.8686 58.3202 40.3524 58.1429 40.9544 58.1429C41.5456 58.1429 42.0186 58.3202 42.3734 58.675C42.7281 59.019 42.9055 59.4812 42.9055 60.0617V61.1743C42.9055 61.7548 42.7281 62.2171 42.3734 62.5611C42.0186 62.9051 41.5456 63.0771 40.9544 63.0771ZM40.9383 61.9161C41.1425 61.9161 41.3038 61.8516 41.422 61.7226C41.551 61.5828 41.6155 61.3947 41.6155 61.1582V60.0456C41.6155 59.8306 41.551 59.6586 41.422 59.5296C41.3038 59.3899 41.1425 59.32 40.9383 59.32C40.734 59.32 40.5674 59.3899 40.4384 59.5296C40.3201 59.6586 40.261 59.8306 40.261 60.0456V61.1582C40.261 61.3947 40.3201 61.5828 40.4384 61.7226C40.5674 61.8516 40.734 61.9161 40.9383 61.9161Z" fill="white"/>
<rect opacity="0.6" x="22.1477" y="84.6323" width="70.2951" height="7.81057" rx="3.90528" fill="white"/>
<path fill-rule="evenodd" clip-rule="evenodd" d="M176.336 53.7273C174.537 52.3353 172.065 51.8713 172.065 51.8713C172.065 51.8713 174.314 50.4792 175.212 49.3192C176.111 47.9272 176.564 46.0712 176.564 44.9112C176.564 43.9831 176.786 39.5751 173.412 37.023C170.94 35.167 168.014 34.239 163.965 34.007V25.4229H158.792V34.007H154.743V25.4229H149.344V34.007H138.997V39.5751H142.146C143.046 39.5751 144.396 39.5751 145.073 40.2711C145.745 41.1991 145.745 41.4311 145.745 42.8231V65.0932C145.745 65.5595 145.745 66.2532 145.295 66.7195C144.846 67.1835 144.396 67.1835 143.271 67.1835H140.122L138.997 73.6796H149.344V82.2637H154.743V73.6796H158.792V82.2637H164.192V73.4476C165.54 73.4476 166.889 73.2133 167.566 73.2133C169.139 72.9836 172.515 72.5196 175.662 70.4316C178.813 68.1115 179.485 64.6315 179.71 61.1514C179.485 57.4394 178.138 55.1193 176.336 53.7273V53.7273ZM154.743 40.039C154.743 40.039 156.319 39.807 158.117 39.807C159.694 39.807 161.266 39.807 163.515 40.503C165.764 41.1991 166.889 42.8231 167.114 44.9111C167.114 46.7671 166.214 48.1592 164.865 49.0872C163.29 50.0152 161.266 50.4792 159.466 50.4792H154.968V40.039H154.743ZM166.442 65.7914C165.317 66.4875 162.84 67.1835 160.366 67.1835C158.117 67.4132 154.518 67.1835 154.518 67.1835V55.5833C154.518 55.5833 157.892 55.3513 160.591 55.5833C163.29 55.813 165.317 56.5113 166.442 56.973C167.339 57.4393 169.139 58.5993 169.139 61.1514C169.139 64.1674 167.789 65.0931 166.442 65.7914V65.7914Z" fill="white"/>
</g>
<defs>
<filter id="filter0_d_7226_25187" x="-9" y="-9" width="243.35" height="123.924" filterUnits="userSpaceOnUse" color-interpolation-filters="sRGB">
<feFlood flood-opacity="0" result="BackgroundImageFix"/>
<feColorMatrix in="SourceAlpha" type="matrix" values="0 0 0 0 0 0 0 0 0 0 0 0 0 0 0 0 0 0 127 0" result="hardAlpha"/>
<feOffset/>
<feGaussianBlur stdDeviation="4.5"/>
<feComposite in2="hardAlpha" operator="out"/>
<feColorMatrix type="matrix" values="0 0 0 0 0 0 0 0 0 0 0 0 0 0 0 0 0 0 0.12 0"/>
<feBlend mode="normal" in2="BackgroundImageFix" result="effect1_dropShadow_7226_25187"/>
<feBlend mode="normal" in="SourceGraphic" in2="effect1_dropShadow_7226_25187" result="shape"/>
</filter>
</defs>
</svg>
