<svg width="150" height="99" viewBox="0 0 150 99" fill="none" xmlns="http://www.w3.org/2000/svg">
<g filter="url(#filter0_d_7226_25195)">
<rect width="149.287" height="98.2205" rx="7.5" fill="#66667A" shape-rendering="crispEdges"/>
<path d="M106.812 56.214C104.44 56.214 102.488 55.6333 100.956 54.472C99.4235 53.3106 98.5093 51.6551 98.2128 49.5054L98.1386 48.2452H102.957L103.031 49.4683C103.254 50.3578 103.686 51.0621 104.328 51.581C104.996 52.0751 105.823 52.3222 106.812 52.3222C107.998 52.3222 108.937 51.9763 109.629 51.2844C110.345 50.5926 110.703 49.6413 110.703 48.4305V46.2437C110.703 45.1318 110.345 44.2299 109.629 43.538C108.937 42.8461 108.022 42.5002 106.886 42.5002C105.996 42.5002 105.218 42.6608 104.551 42.982C103.908 43.2785 103.414 43.748 103.068 44.3905L102.994 44.8352H98.3981V29.8983H114.41V34.0495H102.957V40.4617C103.575 39.9428 104.279 39.5598 105.07 39.3127C105.885 39.0409 106.886 38.905 108.072 38.905C109.48 38.905 110.741 39.2015 111.852 39.7945C112.964 40.3875 113.829 41.24 114.447 42.3519C115.065 43.4639 115.374 44.7488 115.374 46.2066V48.3193C115.374 49.9254 115.003 51.3339 114.262 52.5446C113.52 53.7307 112.495 54.6449 111.185 55.2874C109.876 55.9051 108.418 56.214 106.812 56.214ZM125.614 42.1078H127.655L118.825 55.8434H116.784L125.614 42.1078ZM125.123 56.0396C124.391 56.0396 123.802 55.8237 123.357 55.392C122.913 54.9604 122.69 54.3913 122.69 53.6849V52.331C122.69 51.6246 122.913 51.0621 123.357 50.6434C123.802 50.2248 124.391 50.0155 125.123 50.0155C125.83 50.0155 126.399 50.2314 126.83 50.6631C127.262 51.0817 127.478 51.6376 127.478 52.331V53.6849C127.478 54.3913 127.262 54.9604 126.83 55.392C126.399 55.8237 125.83 56.0396 125.123 56.0396ZM125.104 54.6071C125.339 54.6071 125.535 54.5221 125.692 54.3521C125.849 54.182 125.928 53.9596 125.928 53.6849V52.3506C125.928 52.0759 125.849 51.8535 125.692 51.6834C125.535 51.5134 125.339 51.4283 125.104 51.4283C124.842 51.4283 124.633 51.5134 124.476 51.6834C124.332 51.8404 124.26 52.0628 124.26 52.3506V53.6849C124.26 53.9727 124.332 54.2016 124.476 54.3717C124.633 54.5287 124.842 54.6071 125.104 54.6071ZM119.394 47.9356C118.674 47.9356 118.092 47.7263 117.647 47.3077C117.202 46.889 116.98 46.3265 116.98 45.6201V44.2662C116.98 43.5598 117.196 42.9973 117.628 42.5787C118.072 42.147 118.661 41.9312 119.394 41.9312C120.113 41.9312 120.689 42.147 121.12 42.5787C121.552 42.9973 121.768 43.5598 121.768 44.2662V45.6201C121.768 46.3265 121.552 46.889 121.12 47.3077C120.689 47.7263 120.113 47.9356 119.394 47.9356ZM119.374 46.5228C119.622 46.5228 119.819 46.4443 119.963 46.2873C120.12 46.1172 120.198 45.8883 120.198 45.6005V44.2466C120.198 43.985 120.12 43.7756 119.963 43.6187C119.819 43.4486 119.622 43.3636 119.374 43.3636C119.125 43.3636 118.923 43.4486 118.766 43.6187C118.622 43.7756 118.55 43.985 118.55 44.2466V45.6005C118.55 45.8883 118.622 46.1172 118.766 46.2873C118.923 46.4443 119.125 46.5228 119.374 46.5228Z" fill="white"/>
<rect opacity="0.6" x="108.043" y="72.3633" width="25.7175" height="10.3135" rx="5.15677" fill="white"/>
<path d="M50.7776 18.0351L50.3928 19.3421V57.2646L50.7776 57.6485L68.3806 47.2433L50.7776 18.0351Z" fill="#E6E4E4"/>
<path d="M50.7806 18.0351L33.1772 47.2433L50.7806 57.6485V39.2419V18.0351Z" fill="white"/>
<path d="M50.7779 60.9829L50.561 61.2474V74.7559L50.7779 75.389L68.3918 50.5831L50.7779 60.9829Z" fill="#E5E3E3"/>
<path d="M50.7806 75.389V60.9829L33.1772 50.5831L50.7806 75.389Z" fill="white"/>
<path d="M50.7781 57.648L68.3808 47.2427L50.7781 39.2414V57.648Z" fill="#C0C0C0"/>
<path d="M33.1772 47.2427L50.7806 57.648V39.2414L33.1772 47.2427Z" fill="#D8D8D8"/>
<path d="M50.7776 18.035V20.642L50.7776 55.1116L50.7776 57.6484L68.3806 47.2432L50.7776 18.035Z" fill="#2C2C2C" fill-opacity="0.2"/>
<path d="M50.7778 60.9829V63.8014L50.7778 71.0429L50.7778 75.389L68.3917 50.5831L50.7778 60.9829Z" fill="#2C2C2C" fill-opacity="0.2"/>
<path d="M50.7781 57.648L68.3808 47.2427L50.7781 39.2414V57.648Z" fill="#2C2C2C" fill-opacity="0.2"/>
<path d="M33.1772 47.2427L50.7806 57.648V39.2414L33.1772 47.2427Z" fill="#2C2C2C" fill-opacity="0.2"/>
</g>
<defs>
<filter id="filter0_d_7226_25195" x="-9" y="-9" width="167.287" height="116.221" filterUnits="userSpaceOnUse" color-interpolation-filters="sRGB">
<feFlood flood-opacity="0" result="BackgroundImageFix"/>
<feColorMatrix in="SourceAlpha" type="matrix" values="0 0 0 0 0 0 0 0 0 0 0 0 0 0 0 0 0 0 127 0" result="hardAlpha"/>
<feOffset/>
<feGaussianBlur stdDeviation="4.5"/>
<feComposite in2="hardAlpha" operator="out"/>
<feColorMatrix type="matrix" values="0 0 0 0 0 0 0 0 0 0 0 0 0 0 0 0 0 0 0.22 0"/>
<feBlend mode="normal" in2="BackgroundImageFix" result="effect1_dropShadow_7226_25195"/>
<feBlend mode="normal" in="SourceGraphic" in2="effect1_dropShadow_7226_25195" result="shape"/>
</filter>
</defs>
</svg>
