<svg width="343" height="238" viewBox="0 0 343 238" fill="none" xmlns="http://www.w3.org/2000/svg">
<path d="M311.414 79.7615H302.004V72H329.46V79.8953H319.921V165.673H311.414V79.7615Z" fill="white"/>
<path d="M288.383 166.06C286.425 166.06 284.613 165.656 282.945 164.846C281.277 163.963 279.936 162.712 278.921 161.093C277.906 159.474 277.398 157.523 277.398 155.242V140.56H284.359V155.242C284.359 156.714 284.721 157.818 285.446 158.554C286.171 159.29 287.114 159.658 288.274 159.658C289.434 159.658 290.34 159.29 290.993 158.554C291.646 157.818 291.972 156.714 291.972 155.242V144.092C291.972 141.149 291.646 138.72 290.993 136.807C290.413 134.893 289.652 133.348 288.709 132.17C287.839 130.993 286.679 129.668 285.229 128.196C283.561 126.577 282.22 125.105 281.205 123.78C280.19 122.382 279.32 120.505 278.595 118.15C277.87 115.722 277.507 112.704 277.507 109.098V97.8383C277.507 95.6304 277.978 93.7538 278.921 92.2083C279.863 90.6628 281.132 89.4853 282.727 88.6757C284.323 87.8662 286.099 87.4614 288.057 87.4614C290.014 87.4614 291.791 87.8662 293.386 88.6757C295.053 89.4853 296.358 90.6628 297.301 92.2083C298.243 93.7538 298.715 95.5936 298.715 97.7279V113.735H291.754V97.8383C291.754 96.5136 291.428 95.52 290.775 94.8577C290.123 94.1953 289.253 93.8642 288.165 93.8642C287.005 93.8642 286.099 94.1953 285.446 94.8577C284.794 95.52 284.468 96.5136 284.468 97.8383V108.657C284.468 111.306 284.758 113.551 285.338 115.391C285.918 117.157 286.606 118.592 287.404 119.696C288.274 120.8 289.47 122.088 290.993 123.56C292.661 125.252 294.002 126.798 295.017 128.196C296.105 129.594 297.011 131.581 297.736 134.157C298.534 136.659 298.932 139.824 298.932 143.651V155.021C298.932 157.45 298.461 159.511 297.518 161.203C296.576 162.822 295.271 164.037 293.603 164.846C292.008 165.656 290.268 166.06 288.383 166.06Z" fill="white"/>
<path d="M258.018 97.69H273.63V103.214H264.301V128.893H273.63V134.319H264.301V159.999H273.63V165.522H258.018V97.69Z" fill="white"/>
<path d="M237.56 107.38H244.949C247.772 107.38 249.985 108.073 251.59 109.457C253.195 110.786 253.998 112.724 253.998 115.271V131.385C253.998 133.157 253.638 134.679 252.919 135.953C252.199 137.171 251.175 138.112 249.847 138.777C248.519 139.386 246.914 139.691 245.032 139.691H242.957V165.522H237.56V107.38ZM243.87 137.365H249.432L255.326 165.522H249.681L243.87 137.365ZM245.032 135.039C246.084 135.039 246.914 134.762 247.522 134.209C248.187 133.655 248.519 132.88 248.519 131.883V115.271C248.519 114.274 248.214 113.499 247.605 112.945C246.997 112.392 246.139 112.115 245.032 112.115H243.04V135.039H245.032Z" fill="white"/>
<path d="M222.487 114.917H234.33V119.038H227.253V138.195H234.33V142.244H227.253V161.401H234.33V165.522H222.487V114.917Z" fill="white"/>
<path d="M211.154 124.198H206.438V120.451H220.198V124.263H215.418V165.673H211.154V124.198Z" fill="white"/>
<path d="M190.438 120.451H195.865L201.291 160.052H201.42L200.581 138.217V120.451H204.198V165.673H198.578L193.345 126.007H193.151L193.991 147.197V165.673H190.438V120.451Z" fill="white"/>
<path d="M183.12 120.451H187.384V165.673H183.12V120.451Z" fill="white"/>
<path d="M164.509 120.451H168.773V161.926H175.039V165.673H164.509V120.451Z" fill="white"/>
<path d="M151.465 120.451H158.12L162.448 165.673H158.184L154.889 124.328H154.76L151.401 165.673H147.073L151.465 120.451ZM150.367 152.688H159.218V156.306H150.367V152.688Z" fill="white"/>
<path d="M138.608 165.996C137.273 165.996 136.089 165.737 135.055 165.221C134.022 164.661 133.203 163.885 132.6 162.895C132.04 161.861 131.76 160.634 131.76 159.213V120.451H136.024V159.277C136.024 159.88 136.132 160.419 136.347 160.892C136.563 161.323 136.864 161.668 137.252 161.926C137.639 162.141 138.091 162.249 138.608 162.249C139.427 162.249 140.051 161.991 140.482 161.474C140.956 160.957 141.192 160.225 141.192 159.277V120.451H145.456V159.148C145.456 160.569 145.155 161.797 144.552 162.83C143.992 163.864 143.195 164.661 142.161 165.221C141.128 165.737 139.943 165.996 138.608 165.996Z" fill="white"/>
<path d="M115.174 120.451H120.601L126.028 160.052H126.157L125.317 138.217V120.451H128.935V165.673H123.314L118.082 126.007H117.888L118.728 147.197V165.673H115.174V120.451Z" fill="white"/>
<path d="M98.3298 120.451H103.756L109.183 160.052H109.312L108.472 138.217V120.451H112.09V165.673H106.47L101.237 126.007H101.043L101.883 147.197V165.673H98.3298V120.451Z" fill="white"/>
<path d="M85.2864 120.451H91.9404L96.2687 165.673H92.005L88.7103 124.328H88.5811L85.2218 165.673H80.8934L85.2864 120.451ZM84.1881 152.688H93.0386V156.306H84.1881V152.688Z" fill="white"/>
<path d="M59.0894 120.451H64.5159L69.9425 160.052H70.0717L69.2319 138.217V120.451H72.8496V165.673H67.2292L61.9964 126.007H61.8026L62.6425 147.197V165.673H59.0894V120.451Z" fill="#13C636"/>
<path d="M43.3805 120.451H49.1301C51.3265 120.451 53.0492 120.99 54.2982 122.067C55.5472 123.1 56.1717 124.608 56.1717 126.589V139.121C56.1717 140.5 55.8917 141.684 55.3318 142.675C54.772 143.622 53.9752 144.354 52.9416 144.871C51.9079 145.345 50.659 145.582 49.1947 145.582H47.5796V165.673H43.3805V120.451ZM48.2902 143.773H52.6186L57.2053 165.673H52.8124L48.2902 143.773ZM49.1947 141.964C50.013 141.964 50.659 141.749 51.1327 141.318C51.6495 140.887 51.9079 140.284 51.9079 139.509V126.589C51.9079 125.813 51.6711 125.21 51.1973 124.78C50.7236 124.349 50.056 124.134 49.1947 124.134H47.6442V141.964H49.1947Z" fill="#13C636"/>
<path d="M30.337 120.451H36.991L41.3193 165.673H37.0556L33.7609 124.328H33.6317L30.2724 165.673H25.9441L30.337 120.451ZM29.2388 152.688H38.0893V156.306H29.2388V152.688Z" fill="#13C636"/>
<path d="M13.5399 120.451H24.1346V124.134H17.8036V141.253H24.1346V144.871H17.8036V161.991H24.1346V165.673H13.5399V120.451Z" fill="#13C636"/>
</svg>
