<svg width="456" height="316" viewBox="0 0 456 316" fill="none" xmlns="http://www.w3.org/2000/svg">
<g clip-path="url(#clip0_7255_25550)">
<mask id="mask0_7255_25550" style="mask-type:luminance" maskUnits="userSpaceOnUse" x="0" y="0" width="456" height="316">
<path d="M456 0H0V316H456V0Z" fill="white"/>
</mask>
<g mask="url(#mask0_7255_25550)">
<path fill-rule="evenodd" clip-rule="evenodd" d="M75.9129 326L75.9128 8H72.0859V326H75.9129ZM65.9128 26L65.9129 308H62.0859V26H65.9128ZM45.9129 41V293H42.086L42.0859 41H45.9129ZM34.9129 271L34.9128 63H31.0859L31.086 271H34.9129ZM24.9128 85L24.9129 249H21.086L21.0859 85H24.9128ZM14.9129 86V249H11.086L11.0859 86H14.9129ZM55.9129 293V41H52.0859L52.086 293H55.9129ZM85.9128 26L85.9129 308H82.0859V26H85.9128ZM96.9129 293V41H93.0859L93.086 293H96.9129ZM106.912 41V293H103.086V41H106.912ZM116.912 278V57H113.086V278H116.912ZM126.912 63V272H123.086V63H126.912ZM136.912 249V86H133.086V249H136.912ZM147.912 86V249H144.086V86H147.912ZM157.912 228V106H154.086V228H157.912ZM167.912 97V237H164.086V97H167.912ZM177.912 238V96H174.086V238H177.912ZM187.912 96V239H184.086V96H187.912ZM198.912 222V112H195.086V222H198.912ZM208.912 112V223H205.086V112H208.912ZM218.912 238V97H215.086V238H218.912ZM228.912 98V236H225.086V98H228.912ZM238.912 236V98H235.086V236H238.912ZM249.912 111V223H246.086V111H249.912ZM259.912 222V112H256.086V222H259.912ZM271.912 79.0435L267.912 255.043L264.086 254.957L268.086 78.9565L271.912 79.0435ZM278.912 246.024L280.912 88.0242L277.086 87.9758L275.086 245.976L278.912 246.024ZM291.912 98.0554L287.912 236.055L284.086 235.945L288.086 97.9446L291.912 98.0554ZM300.912 226V108H297.086V226H300.912ZM310.912 108V226H307.086V108H310.912ZM320.912 187V148H317.086V187H320.912ZM330.912 135V200H327.086V135H330.912ZM340.912 223V112H337.086V223H340.912ZM351.912 111V223H348.086V111H351.912ZM361.912 239V96H358.086V239H361.912ZM371.912 96V238H368.086V96H371.912ZM381.912 248V86H378.086V248H381.912ZM392.912 86V249H389.086V86H392.912ZM402.912 248V86H399.086V248H402.912ZM412.912 98V236H409.086V98H412.912ZM422.912 236V98H419.086V236H422.912ZM433.912 112V222H430.086V112H433.912ZM445.912 213V121H442.086V213H445.912Z" fill="url(#paint0_linear_7255_25550)"/>
<g filter="url(#filter0_d_7255_25550)">
<path d="M418.851 207.885C415.419 207.885 412.396 207.214 409.785 205.871C407.173 204.528 405.121 202.587 403.629 200.05C402.211 197.439 401.502 194.417 401.502 190.984V145.205C401.502 141.698 402.211 138.676 403.629 136.139C405.121 133.527 407.173 131.55 409.785 130.206C412.396 128.863 415.419 128.192 418.851 128.192C424.074 128.192 428.253 129.721 431.387 132.781C434.596 135.766 436.2 139.907 436.2 145.205V157.405H422.097V144.645C422.097 143.451 421.798 142.519 421.202 141.847C420.605 141.101 419.821 140.728 418.851 140.728C418.179 140.728 417.582 140.877 417.06 141.175C416.612 141.474 416.239 141.922 415.941 142.519C415.717 143.116 415.605 143.824 415.605 144.645V191.32C415.605 192.141 415.717 192.85 415.941 193.447C416.239 194.043 416.612 194.528 417.06 194.902C417.582 195.2 418.179 195.349 418.851 195.349C419.523 195.349 420.082 195.2 420.53 194.902C421.052 194.528 421.425 194.043 421.649 193.447C421.948 192.85 422.097 192.141 422.097 191.32L422.209 170.725L424.671 173.971H417.956V162.778H436.2V190.536C436.2 194.118 435.454 197.215 433.962 199.826C432.544 202.438 430.529 204.453 427.917 205.871C425.306 207.214 422.284 207.885 418.851 207.885Z" fill="white"/>
<path d="M364.781 128.863H380.899L389.63 188.074H389.965L387.391 153.376V128.863H398.584V207.214H382.354L373.624 147.779H373.288L375.974 183.933V207.214H364.781V128.863Z" fill="white"/>
<path d="M347.511 128.863H361.614V207.214H347.511V128.863Z" fill="white"/>
<path d="M322.103 141.176H314.044V128.863H344.265V141.176H336.206V207.214H322.103V141.176Z" fill="white"/>
<path d="M296.408 208.109C293.498 208.109 290.774 207.512 288.237 206.318C285.7 205.05 283.685 203.259 282.193 200.946C280.7 198.558 279.954 195.722 279.954 192.439V180.015H293.162V192.439C293.162 193.409 293.423 194.193 293.945 194.79C294.468 195.312 295.139 195.573 295.96 195.573C296.781 195.573 297.452 195.312 297.975 194.79C298.497 194.193 298.758 193.409 298.758 192.439V186.507C298.758 184.119 298.385 182.104 297.639 180.463C296.967 178.821 296.072 177.478 294.953 176.433C293.908 175.389 292.49 174.232 290.699 172.963C288.386 171.247 286.521 169.643 285.103 168.15C283.685 166.658 282.454 164.569 281.409 161.882C280.439 159.121 279.954 155.652 279.954 151.473V143.75C279.954 140.467 280.626 137.631 281.969 135.243C283.387 132.855 285.252 131.064 287.565 129.871C289.953 128.602 292.565 127.968 295.4 127.968C298.46 127.968 301.258 128.602 303.795 129.871C306.332 131.139 308.31 132.93 309.727 135.243C311.22 137.556 311.966 140.205 311.966 143.19V156.062H298.758V143.75C298.758 142.631 298.497 141.847 297.975 141.399C297.452 140.877 296.781 140.616 295.96 140.616C295.065 140.616 294.356 140.877 293.833 141.399C293.386 141.922 293.162 142.705 293.162 143.75V149.57C293.162 151.958 293.498 154.01 294.169 155.726C294.915 157.368 295.811 158.711 296.855 159.756C297.975 160.8 299.467 161.994 301.333 163.337C303.571 165.054 305.399 166.695 306.817 168.262C308.235 169.755 309.429 171.844 310.399 174.53C311.444 177.217 311.966 180.612 311.966 184.716V191.768C311.966 195.275 311.257 198.259 309.839 200.722C308.496 203.184 306.631 205.05 304.243 206.318C301.93 207.587 299.318 208.184 296.408 208.109Z" fill="white"/>
<path d="M251.212 128.863H277.068V141.176H265.315V161.882H277.068V174.195H265.315V194.902H277.068V207.214H251.212V128.863Z" fill="white"/>
<path d="M210.831 128.863H224.934L230.531 194.342H230.866L236.127 128.863H250.118L241.052 207.214H220.121L210.831 128.863Z" fill="white"/>
<path d="M175.899 128.863H192.017L200.748 188.074H201.084L198.509 153.376V128.863H209.702V207.214H193.472L184.742 147.779H184.406L187.092 183.933V207.214H175.899V128.863Z" fill="white"/>
<path d="M158.63 128.863H172.733V207.214H158.63V128.863Z" fill="white"/>
<path d="M101.487 128.456H117.829C121.665 128.456 124.965 129.133 127.727 130.487C130.565 131.841 132.714 133.797 134.171 136.356C135.706 138.838 136.473 141.81 136.473 145.271V190.414C136.473 193.875 135.706 196.885 134.171 199.443C132.714 202.001 130.565 203.995 127.727 205.424C124.888 206.778 121.589 207.456 117.829 207.456H101.487V128.456ZM117.944 194.364C119.325 194.364 120.323 194.026 120.937 193.348C121.627 192.671 121.972 191.656 121.972 190.301V144.707C121.972 143.428 121.665 142.45 121.052 141.773C120.438 141.02 119.402 140.644 117.944 140.644H115.988V194.364H117.944Z" fill="white"/>
<path d="M80.1671 200.684C77.211 200.684 74.6008 200.123 72.3366 199.001C70.0723 197.879 68.3112 196.289 67.0533 194.232C65.8583 192.174 65.2607 189.805 65.2607 187.124V134.663H77.1481V187.031C77.1481 187.717 77.2739 188.309 77.5255 188.808C77.7771 189.306 78.123 189.68 78.5633 189.93C79.0036 190.179 79.5382 190.304 80.1671 190.304C81.1735 190.304 81.9282 190.023 82.4314 189.462C82.9975 188.901 83.2805 188.091 83.2805 187.031V134.663H95.1679V186.75C95.1679 189.556 94.5389 192.018 93.281 194.138C92.086 196.195 90.3563 197.816 88.0921 199.001C85.8278 200.123 83.1862 200.684 80.1671 200.684Z" fill="white"/>
<path d="M48.2818 193.913C46.0489 193.913 44.083 193.47 42.3841 192.586C40.6852 191.701 39.3503 190.424 38.3795 188.753C37.4572 187.033 36.9961 185.043 36.9961 182.783V152.637C36.9961 150.328 37.4572 148.338 38.3795 146.667C39.3503 144.947 40.6852 143.645 42.3841 142.761C44.083 141.876 46.0489 141.434 48.2818 141.434C50.5147 141.434 52.4806 141.876 54.1795 142.761C55.8784 143.645 57.189 144.947 58.1113 146.667C59.0821 148.338 59.5675 150.328 59.5675 152.637V182.488C59.5675 184.847 59.0821 186.886 58.1113 188.606C57.189 190.326 55.8784 191.652 54.1795 192.586C52.4806 193.47 50.5147 193.913 48.2818 193.913ZM48.2818 185.658C48.7187 185.658 49.0827 185.559 49.374 185.363C49.7138 185.117 49.9565 184.798 50.1021 184.405C50.2962 184.012 50.3933 183.545 50.3933 183.004V152.269C50.3933 151.777 50.2962 151.335 50.1021 150.942C49.9565 150.549 49.7138 150.254 49.374 150.058C49.0827 149.812 48.7187 149.689 48.2818 149.689C47.8449 149.689 47.4566 149.787 47.1168 149.984C46.8256 150.181 46.5829 150.475 46.3887 150.868C46.2431 151.262 46.1703 151.728 46.1703 152.269V183.004C46.1703 183.545 46.2431 184.012 46.3887 184.405C46.5829 184.798 46.8256 185.117 47.1168 185.363C47.4566 185.559 47.8449 185.658 48.2818 185.658Z" fill="white"/>
<path d="M17.5791 145.948H25.5373V183.15H31.7901V190.16H17.5791V145.948Z" fill="white"/>
</g>
</g>
</g>
<defs>
<filter id="filter0_d_7255_25550" x="-2.4209" y="107.968" width="458.621" height="120.148" filterUnits="userSpaceOnUse" color-interpolation-filters="sRGB">
<feFlood flood-opacity="0" result="BackgroundImageFix"/>
<feColorMatrix in="SourceAlpha" type="matrix" values="0 0 0 0 0 0 0 0 0 0 0 0 0 0 0 0 0 0 127 0" result="hardAlpha"/>
<feOffset/>
<feGaussianBlur stdDeviation="10"/>
<feComposite in2="hardAlpha" operator="out"/>
<feColorMatrix type="matrix" values="0 0 0 0 0 0 0 0 0 0 0 0 0 0 0.129412 0 0 0 0.6 0"/>
<feBlend mode="normal" in2="BackgroundImageFix" result="effect1_dropShadow_7255_25550"/>
<feBlend mode="normal" in="SourceGraphic" in2="effect1_dropShadow_7255_25550" result="shape"/>
</filter>
<linearGradient id="paint0_linear_7255_25550" x1="404.032" y1="167" x2="52.0512" y2="167" gradientUnits="userSpaceOnUse">
<stop stop-color="#F7B42C"/>
<stop offset="0.25" stop-color="#E96E14"/>
<stop offset="0.5" stop-color="#F887CC"/>
<stop offset="0.75" stop-color="#C0E8FD"/>
<stop offset="1" stop-color="#13C636"/>
</linearGradient>
<clipPath id="clip0_7255_25550">
<rect width="456" height="316" fill="white"/>
</clipPath>
</defs>
</svg>
