<svg width="164" height="212" viewBox="0 0 164 212" fill="none" xmlns="http://www.w3.org/2000/svg">
<g filter="url(#filter0_d_7226_25250)">
<rect x="163.701" y="4.22505e-06" width="211.848" height="163.701" rx="7.5" transform="rotate(90 163.701 4.22505e-06)" fill="#9999A6" shape-rendering="crispEdges"/>
<path d="M60.9262 29.1836L57.6977 23.3357L61.2917 23.3357L65.3731 30.1278L65.3731 33.2041L44.0524 33.2041L44.0524 29.1836L60.9262 29.1836ZM43.7479 42.9955C43.7479 41.5538 43.9814 40.2949 44.4484 39.2187C44.9154 38.1628 45.5652 37.3405 46.3977 36.7516C47.2505 36.183 48.2252 35.8988 49.3217 35.8988L50.4791 35.8988C51.535 35.8988 52.4081 36.1627 53.0985 36.6907C53.8092 37.2389 54.3473 38.0207 54.7128 39.036C55.0783 38.1222 55.6164 37.4115 56.3271 36.9039C57.0377 36.4166 57.9109 36.1729 58.9465 36.1729L60.1039 36.1729C61.2004 36.1729 62.1649 36.447 62.9974 36.9953C63.8502 37.5435 64.5101 38.3354 64.9772 39.371C65.4442 40.4066 65.6777 41.6351 65.6777 43.0564C65.6777 44.4575 65.4442 45.6657 64.9772 46.6809C64.5101 47.6962 63.8502 48.478 62.9974 49.0262C62.1649 49.5745 61.2004 49.8486 60.1039 49.8486L58.9465 49.8486C57.9312 49.8486 57.058 49.5948 56.3271 49.0871C55.6164 48.5795 55.0783 47.8688 54.7128 46.9551C54.3676 47.9703 53.8396 48.7521 53.129 49.3003C52.4183 49.8486 51.5451 50.1227 50.5096 50.1227L49.3826 50.1227C48.2658 50.1227 47.281 49.8283 46.4282 49.2394C45.5956 48.6709 44.9357 47.8485 44.4484 46.7723C43.9814 45.6961 43.7479 44.4372 43.7479 42.9955ZM47.0373 42.9955C47.0373 43.9702 47.2607 44.7316 47.7074 45.2799C48.1541 45.8281 48.7633 46.1022 49.5349 46.1022L50.7837 46.1022C51.535 46.1022 52.1238 45.8281 52.5502 45.2799C52.997 44.7316 53.2203 43.9702 53.2203 42.9955C53.2203 42.0209 53.0071 41.2594 52.5807 40.7112C52.1543 40.1832 51.5451 39.9192 50.7532 39.9192L49.5349 39.9192C48.743 39.9192 48.1237 40.1934 47.6769 40.7416C47.2505 41.2899 47.0373 42.0412 47.0373 42.9955ZM56.2661 42.9955C56.2661 43.889 56.4793 44.5895 56.9058 45.0971C57.3525 45.6048 57.9413 45.8586 58.6723 45.8586L60.0125 45.8586C60.7435 45.8586 61.3222 45.6048 61.7486 45.0971C62.175 44.6098 62.3882 43.9296 62.3882 43.0564C62.3882 42.1427 62.175 41.4218 61.7486 40.8939C61.3222 40.3863 60.7435 40.1325 60.0125 40.1325L58.6723 40.1325C57.9413 40.1325 57.3525 40.3863 56.9058 40.8939C56.4793 41.4015 56.2661 42.1021 56.2661 42.9955ZM55.3399 58.4769L55.3399 60.1539L44.0524 52.8977L44.0524 51.2207L55.3399 58.4769ZM43.8912 58.0738C43.8912 57.4718 44.0686 56.988 44.4233 56.6225C44.7781 56.257 45.2457 56.0743 45.8262 56.0743L46.9388 56.0743C47.5193 56.0743 47.9815 56.257 48.3255 56.6225C48.6695 56.988 48.8415 57.4718 48.8415 58.0738C48.8415 58.6543 48.6642 59.1219 48.3094 59.4766C47.9654 59.8314 47.5085 60.0088 46.9388 60.0088L45.8262 60.0088C45.2457 60.0088 44.7781 59.8314 44.4233 59.4766C44.0686 59.1219 43.8912 58.6543 43.8912 58.0738ZM45.0683 58.0576C45.0683 58.2511 45.1382 58.4124 45.2779 58.5414C45.4177 58.6704 45.6004 58.7349 45.8262 58.7349L46.9227 58.7349C47.1484 58.7349 47.3312 58.6704 47.4709 58.5414C47.6107 58.4124 47.6805 58.2511 47.6805 58.0576C47.6805 57.8426 47.6107 57.6706 47.4709 57.5416C47.3419 57.4234 47.1592 57.3643 46.9227 57.3643L45.8262 57.3643C45.5897 57.3643 45.4015 57.4234 45.2618 57.5416C45.1328 57.6706 45.0683 57.8426 45.0683 58.0576ZM50.5508 53.3653C50.5508 52.7741 50.7228 52.2957 51.0668 51.9302C51.4108 51.5647 51.873 51.3819 52.4535 51.3819L53.5661 51.3819C54.1466 51.3819 54.6089 51.5593 54.9529 51.9141C55.3076 52.2796 55.485 52.7633 55.485 53.3653C55.485 53.9565 55.3076 54.4295 54.9529 54.7843C54.6089 55.139 54.1466 55.3164 53.5661 55.3164L52.4535 55.3164C51.873 55.3164 51.4108 55.139 51.0668 54.7843C50.7228 54.4295 50.5508 53.9565 50.5508 53.3653ZM51.7118 53.3492C51.7118 53.5534 51.7763 53.7147 51.9053 53.8329C52.045 53.9619 52.2331 54.0264 52.4696 54.0264L53.5822 54.0264C53.7972 54.0264 53.9692 53.9619 54.0982 53.8329C54.238 53.7147 54.3079 53.5534 54.3079 53.3492C54.3079 53.1449 54.238 52.9783 54.0982 52.8493C53.9692 52.7311 53.7972 52.6719 53.5822 52.6719L52.4696 52.6719C52.2331 52.6719 52.045 52.7311 51.9053 52.8493C51.7763 52.9783 51.7118 53.1449 51.7118 53.3492Z" fill="white"/>
<rect opacity="0.6" x="28.9953" y="22.1478" width="70.2951" height="7.81057" rx="3.90528" transform="rotate(90 28.9953 22.1478)" fill="white"/>
<g clip-path="url(#clip0_7226_25250)">
<path fill-rule="evenodd" clip-rule="evenodd" d="M144.589 163.955L123.429 163.955C111.791 163.955 102.258 163.966 102.241 163.983C102.225 163.999 102.297 164.718 102.392 165.588C102.487 166.458 102.609 167.656 102.659 168.253C102.737 169.167 102.91 171.909 102.916 172.222C102.916 172.316 103.389 172.322 111.88 172.333L120.823 172.35L120.838 172.344L120.827 172.344L144.589 163.955Z" fill="#B1060F"/>
<path fill-rule="evenodd" clip-rule="evenodd" d="M144.589 163.955L115.993 172.34L120.823 172.35L120.838 172.344L120.827 172.344L144.589 163.955Z" fill="#9D030F"/>
<path fill-rule="evenodd" clip-rule="evenodd" d="M144.561 178.977L135.201 178.961L125.847 178.944L102.247 187.261C102.242 187.256 102.24 187.234 102.239 187.198C102.239 187.24 102.242 187.265 102.247 187.272C102.269 187.3 111.796 187.306 123.424 187.3L144.561 187.283L144.561 178.977Z" fill="#B1060F"/>
<path fill-rule="evenodd" clip-rule="evenodd" d="M125.847 178.944L103.256 186.905L130.578 178.953L125.847 178.944Z" fill="#9D030F"/>
<path fill-rule="evenodd" clip-rule="evenodd" d="M144.589 163.955L120.827 172.344L120.838 172.344L118.966 173.007C108.543 176.692 102.949 178.671 102.938 178.682C102.932 178.688 102.899 179.245 102.866 179.92C102.765 181.96 102.548 184.49 102.308 186.414C102.253 186.854 102.225 187.239 102.247 187.261L125.847 178.944L125.842 178.944L128.014 178.175C130.137 177.422 131.558 176.921 140.104 173.894C142.405 173.08 144.349 172.389 144.438 172.361L144.594 172.305L144.594 168.13L144.589 163.955Z" fill="#E50914"/>
</g>
</g>
<defs>
<filter id="filter0_d_7226_25250" x="-9.00005" y="-8.99999" width="181.701" height="229.848" filterUnits="userSpaceOnUse" color-interpolation-filters="sRGB">
<feFlood flood-opacity="0" result="BackgroundImageFix"/>
<feColorMatrix in="SourceAlpha" type="matrix" values="0 0 0 0 0 0 0 0 0 0 0 0 0 0 0 0 0 0 127 0" result="hardAlpha"/>
<feOffset/>
<feGaussianBlur stdDeviation="4.5"/>
<feComposite in2="hardAlpha" operator="out"/>
<feColorMatrix type="matrix" values="0 0 0 0 0 0 0 0 0 0 0 0 0 0 0 0 0 0 0.12 0"/>
<feBlend mode="normal" in2="BackgroundImageFix" result="effect1_dropShadow_7226_25250"/>
<feBlend mode="normal" in="SourceGraphic" in2="effect1_dropShadow_7226_25250" result="shape"/>
</filter>
<clipPath id="clip0_7226_25250">
<rect width="24.8117" height="42.3696" fill="white" transform="translate(144.594 163.224) rotate(90)"/>
</clipPath>
</defs>
</svg>
